<svg preserveAspectRatio="xMidYMid meet" data-bbox="-0.001 -0.002 312.218 96.415" xmlns="http://www.w3.org/2000/svg" viewBox="0 0 100.439 96.415" data-type="ugc" role="presentation" aria-hidden="true" aria-label="">
    <g transform="translate(-358.111 -524.159)">
        <g stroke-width="1.044">
            <path fill="currentColor" d="M432.235 530.134c5.418 5.38 10.596 10.52 15.937 15.833-1.452.336-2.751.788-4.07.855-.525.03-1.137-.768-1.643-1.268-3.335-3.286-6.64-6.61-9.985-9.886-.172-.173-.726-.606-.917-1.355-.115-.47-.048-.855.02-1.182a93.85 93.85 0 0 1 .658-2.997z"></path>
            <path fill="currentColor" d="m394.925 524.186 22.405-.029c-.802 1.269-1.404 2.508-2.293 3.488-.353.394-1.347.26-2.054.26-4.672.028-9.345.01-14.017.038-.239 0-.946.086-1.605-.317-.41-.25-.63-.577-.812-.855a69.144 69.144 0 0 1-1.624-2.585z"></path>
            <path fill="currentColor" d="M364.226 545.996c5.36-5.438 10.49-10.636 15.774-15.997.325 1.46.784 2.767.841 4.093.029.528-.764 1.143-1.261 1.653-3.277 3.353-6.583 6.667-9.86 10.02-.172.173-.612.73-1.348.923-.468.115-.85.038-1.175-.029a98.36 98.36 0 0 1-2.971-.663z"></path>
            <path fill="currentColor" d="M454.02 561.08c.029 7.658.048 14.979.076 22.53-1.26-.806-2.503-1.402-3.468-2.296-.392-.355-.258-1.354-.268-2.065-.038-4.699-.028-9.397-.066-14.095 0-.24-.086-.951.305-1.614.249-.413.574-.634.85-.817a71.441 71.441 0 0 1 2.57-1.643z"></path>
            <path fill="currentColor" d="M448.268 598.455c-5.331 5.457-10.434 10.683-15.708 16.073-.334-1.46-.793-2.767-.86-4.092-.028-.529.765-1.153 1.252-1.653 3.258-3.363 6.554-6.697 9.813-10.069.172-.173.602-.74 1.347-.922.468-.116.85-.048 1.175.019.898.173 1.892.384 2.981.644z"></path>
            <path fill="currentColor" d="M417.282 620.572h-22.405c.803-1.268 1.404-2.508 2.303-3.488.353-.394 1.347-.26 2.054-.26 4.672-.018 9.344.01 14.016-.018.24 0 .946-.087 1.606.317.41.25.63.576.812.855.487.768 1.041 1.633 1.614 2.594z"></path>
            <path fill="currentColor" d="m379.752 614.855-15.813-15.958c1.462-.327 2.761-.769 4.08-.827.525-.019 1.137.779 1.634 1.278 3.315 3.315 6.592 6.658 9.908 9.973.172.173.726.615.908 1.364.114.471.038.855-.03 1.182-.19.894-.42 1.902-.687 2.988z"></path>
            <path fill="currentColor" d="M358.11 583.89c.049-7.658.087-14.98.125-22.531 1.252.817 2.484 1.431 3.45 2.335.391.365.248 1.354.248 2.065-.01 4.698-.058 9.397-.058 14.095 0 .24.077.951-.325 1.604-.248.414-.582.635-.86.807a97.45 97.45 0 0 1-2.58 1.624z"></path>
            <path fill="currentColor" d="m406.2 534.49-1.598 3.204-13.254-6.687 1.598-3.203 13.254 6.687z"></path>
            <path fill="currentColor" d="m407.686 537.718-1.598-3.204 13.254-6.686 1.598 3.203-13.254 6.687z"></path>
            <path fill="currentColor" d="m379.445 545.212 1.133 3.398-14.06 4.738-1.133-3.398 14.06-4.738z"></path>
            <path fill="currentColor" d="m382.762 546.444-3.385-1.118 4.628-14.166 3.386 1.118-4.629 14.166z"></path>
            <path fill="currentColor" d="m443.792 572.444-3.19-1.6 6.619-13.344 3.19 1.6-6.619 13.344z"></path>
            <path fill="currentColor" d="m440.629 573.905 3.182-1.614 6.68 13.312-3.182 1.615-6.68-13.313z"></path>
            <path fill="currentColor" d="m433.019 599.28-1.149-3.392 14.038-4.804 1.149 3.393-14.038 4.804z"></path>
            <path fill="currentColor" d="m429.766 598.093 3.39 1.103-4.562 14.187-3.39-1.102 4.562-14.188z"></path>
            <path fill="currentColor" d="m406.033 610.275 1.601-3.201 13.247 6.701-1.601 3.202-13.247-6.702z"></path>
            <path fill="currentColor" d="m404.567 607.04 1.594 3.206-13.262 6.671-1.594-3.205 13.262-6.671z"></path>
            <path fill="currentColor" d="m379.073 599.542 3.386-1.12 4.631 14.166-3.386 1.12-4.63-14.166z"></path>
            <path fill="currentColor" d="m380.315 596.233-1.132 3.398-14.06-4.737 1.132-3.398 14.06 4.737z"></path>
            <path fill="currentColor" d="m368.427 572.604 3.175 1.628-6.739 13.283-3.174-1.629 6.738-13.282z"></path>
            <path fill="currentColor" d="m371.658 571.173-3.196 1.585-6.56-13.373 3.196-1.585 6.56 13.373z"></path>
            <path fill="currentColor" d="m432.829 545.324-3.381 1.133-4.688-14.147 3.382-1.133 4.687 14.147z"></path>
            <path fill="currentColor" d="m431.617 548.632 1.118-3.402 14.08 4.678-1.118 3.403-14.08-4.679z"></path>
        </g>
    </g>
</svg>